<svg width="18" height="18" viewBox="0 0 18 18" fill="none" xmlns="http://www.w3.org/2000/svg">
<g id="Apple">
<path id="Union" d="M11.205 3.8925C11.4885 3.56571 11.7047 3.18613 11.8412 2.77555C11.9776 2.36498 12.0316 1.9315 12 1.5C11.1295 1.57027 10.3215 1.97967 9.74999 2.64C9.47632 2.95648 9.26893 3.32466 9.1401 3.72273C9.01127 4.12081 8.96363 4.54068 8.99999 4.9575C9.4246 4.96104 9.84433 4.86682 10.2267 4.68214C10.6091 4.49747 10.9438 4.22728 11.205 3.8925ZM13.095 9.4725C13.1 8.8978 13.2514 8.33386 13.5348 7.8339C13.8183 7.33394 14.2244 6.91444 14.715 6.615C14.4054 6.16893 13.9962 5.80112 13.5197 5.54076C13.0432 5.28039 12.5126 5.13461 11.97 5.115C10.8 4.995 9.71999 5.7975 9.09749 5.7975C8.47499 5.7975 7.59749 5.13 6.62249 5.145C5.98509 5.166 5.36401 5.35184 4.81983 5.68439C4.27565 6.01694 3.82695 6.48486 3.51749 7.0425C2.19749 9.3375 3.17999 12.75 4.49999 14.6025C5.09999 15.51 5.84999 16.5375 6.83999 16.5C7.82999 16.4625 8.15249 15.885 9.29999 15.885C10.4475 15.885 10.8 16.5 11.775 16.4775C12.75 16.455 13.44 15.5475 14.07 14.64C14.5163 13.9811 14.8649 13.2612 15.105 12.5025C14.5106 12.249 14.0035 11.827 13.6463 11.2885C13.2891 10.75 13.0974 10.1187 13.095 9.4725Z" fill="white"/>
</g>
</svg>
