<svg width="18" height="19" viewBox="0 0 18 19" fill="none" xmlns="http://www.w3.org/2000/svg">
<g id="Forward">
<path id="Union" d="M3.90656 10.25H12.2841L8.62405 13.91C8.33156 14.2025 8.33156 14.6825 8.62405 14.975C8.91655 15.2675 9.38906 15.2675 9.68155 14.975L14.6241 10.0325C14.9166 9.74 14.9166 9.2675 14.6241 8.975L9.68906 4.025C9.54893 3.88456 9.35869 3.80563 9.16031 3.80563C8.96192 3.80563 8.77168 3.88456 8.63156 4.025C8.33906 4.3175 8.33906 4.79 8.63156 5.0825L12.2841 8.75H3.90656C3.49406 8.75 3.15656 9.0875 3.15656 9.5C3.15656 9.9125 3.49406 10.25 3.90656 10.25Z" fill="white"/>
</g>
</svg>
